:SAMPLES-PER-SECOND 30
:FULLY-SPECIFIED
:DEGREES
52
root  0.357835 38.895 8.19347 -178.485 24.3369 175.1
RightUpLeg  -16.3266 -6.3356 -20.5278
RightLeg  20.0364 -13.9418 -5.72353
RightFoot  9.84678 -3.59182 19.3936
RightToes  -1.74624e-010 0 -3.6325e-017
Spine  8.27773 -0.474279 -4.83942
Spine1  21.4727 -1.24436 0.729814
HEad  -15.0936 28.871 -16.3027
LeftShoulder1  0.862962 -1.03963 -11.8532
LeftArm  16.8031 15.7417 -57.5358
LeftForeArm  131.308 -72.4897 -143.464
LeftHand  -2.27516 -3.69392 28.7991
RightShoulder  0.726125 0.660471 10.2016
RightArm  3.46436 -20.7557 57.5712
RightForeArm  155.047 59.6641 161.685
RightHand  -0.948431 4.67321 -11.1951
LeftUpLeg  -13.5489 -4.9693 6.78386
LeftLeg  23.9669 -2.64036 -0.967156
LeftFoot  -6.17696 0.783769 -16.1932
LeftToes  3.7286e-011 -1.5702e-010 -9.70233e-012
53
root  -0.467754 38.5393 8.10653 179.705 25.5858 173.797
RightUpLeg  -17.5835 -7.03589 -21.7032
RightLeg  26.4061 -11.9149 -6.52173
RightFoot  6.34301 -3.06925 19.8561
RightToes  -1.74624e-010 0 -3.6325e-017
Spine  9.36773 -0.336824 -6.90492
Spine1  21.7362 -1.29521 0.318089
HEad  -16.0529 29.0462 -16.4036
LeftShoulder1  0.800128 -0.839694 -11.2231
LeftArm  17.2422 12.1141 -54.1765
LeftForeArm  130.015 -72.5012 -143.188
LeftHand  -2.2666 -3.64787 28.832
RightShoulder  0.691674 0.528721 9.89885
RightArm  3.03866 -18.6116 57.6447
RightForeArm  154.751 59.3396 161.88
RightHand  -1.02342 4.75747 -11.9535
LeftUpLeg  -12.5873 -1.77805 3.97589
LeftLeg  25.2478 -3.33646 -1.35995
LeftFoot  -10.3827 0.182093 -13.1997
LeftToes  3.7286e-011 -1.5702e-010 -9.70233e-012
54
root  -1.29652 38.095 8.14599 177.519 25.8628 172.976
RightUpLeg  -17.9153 -7.13398 -22.3081
RightLeg  33.016 -7.16258 -5.21347
RightFoot  1.24835 -2.31303 20.8284
RightToes  -1.74624e-010 0 -3.6325e-017
Spine  10.9155 -0.0840263 -8.33389
Spine1  23.1519 -1.4802 0.468907
HEad  -17.8343 28.5254 -16.7705
LeftShoulder1  0.889095 -1.33186 -11.1779
LeftArm  16.4848 6.58713 -51.4183
LeftForeArm  123.253 -74.2365 -137.682
LeftHand  -2.29503 -3.28302 30.3463
RightShoulder  0.625258 0.0808037 10.2318
RightArm  1.71317 -14.928 57.6306
RightForeArm  153.754 60.1451 161.227
RightHand  -1.15594 4.88726 -13.2908
LeftUpLeg  -12.5 -0.649652 1.68005
LeftLeg  28.3772 -1.99676 -0.809508
LeftFoot  -13.5995 -0.108459 -9.25696
LeftToes  3.7286e-011 -1.5702e-010 -9.70233e-012
55
root  -2.01693 37.7487 8.22482 176.293 25.9634 172.951
RightUpLeg  -18.0057 -7.68957 -21.5449
RightLeg  38.4079 -4.16213 -3.83898
RightFoot  -2.92107 -1.61431 21.4107
RightToes  -1.74624e-010 0 -3.6325e-017
Spine  11.7807 0.331483 -9.0069
Spine1  25.0526 -1.52489 1.1098
HEad  -19.7114 27.6817 -16.8892
LeftShoulder1  1.12083 -2.53903 -11.3647
LeftArm  14.4308 1.27494 -49.7378
LeftForeArm  110.941 -76.4026 -127.606
LeftHand  -2.26389 -2.64341 32.1966
RightShoulder  0.622326 -0.0094147 10.6392
RightArm  -0.211642 -11.4121 58.0697
RightForeArm  153.132 62.0208 159.752
RightHand  -1.30098 5.1195 -14.5909
LeftUpLeg  -13.0953 -1.28114 0.59354
LeftLeg  31.1715 -1.40081 -0.556451
LeftFoot  -15.5822 -0.214497 -8.224
LeftToes  3.7286e-011 -1.5702e-010 -9.70233e-012
56
root  -2.56591 37.6361 8.29128 176.342 26.4506 173.212
RightUpLeg  -18.2514 -8.36029 -19.7235
RightLeg  41.9991 -4.62474 -4.74529
RightFoot  -5.41998 -1.16424 21.5292
RightToes  -1.74624e-010 0 -3.6325e-017
Spine  11.6609 0.807315 -9.22845
Spine1  26.3153 -1.20471 1.57734
HEad  -20.4091 26.9797 -16.2268
LeftShoulder1  1.34534 -3.66657 -11.6102
LeftArm  11.774 -2.60438 -49.3775
LeftForeArm  97.0587 -78.0078 -115.012
LeftHand  -2.22958 -2.34545 32.8861
RightShoulder  0.700524 0.365634 10.9629
RightArm  -1.69842 -9.44644 59.1739
RightForeArm  153.05 64.0304 158.038
RightHand  -1.4446 5.48775 -15.6265
LeftUpLeg  -14.0419 -1.10014 0.198151
LeftLeg  32.3516 -1.82386 -0.874471
LeftFoot  -16.396 -0.267647 -8.28
LeftToes  3.7286e-011 -1.5702e-010 -9.70233e-012
